<svg xmlns="http://www.w3.org/2000/svg" viewBox="0 0 1024 1024">
  <rect width="1024" height="1024" fill="#0D1422"/>
  <circle cx="512" cy="500" r="344" fill="#55BDB5" opacity="0.12"/>
  <path fill="#F6F1E7" d="M310 176h310l150 150v430c0 55-43 98-98 98H310c-55 0-98-43-98-98V274c0-55 43-98 98-98Z"/>
  <path fill="#FF8268" d="M620 176v150h150L620 176Z"/>
  <path fill="#55BDB5" d="M342 390h308c42 0 76 34 76 76v86c0 42-34 76-76 76H506l-92 82 22-82h-94c-42 0-76-34-76-76v-86c0-42 34-76 76-76Z"/>
  <path fill="#0D1422" d="M350 454h224a16 16 0 0 1 0 32H350a16 16 0 0 1 0-32Zm0 66h168a16 16 0 0 1 0 32H350a16 16 0 0 1 0-32Z"/>
  <path fill="#FF8268" d="M516 748h126a18 18 0 0 1 0 36H516a18 18 0 0 1 0-36Z"/>
</svg>
