<svg xmlns="http://www.w3.org/2000/svg" viewBox="0 0 512 512">
  <path fill="#182238" d="M116 52h190l90 90v278c0 27-21 48-48 48H116c-27 0-48-21-48-48V100c0-27 21-48 48-48Z"/>
  <path fill="#F06A4D" d="M306 52v90h90L306 52Z"/>
  <path fill="#2F9C95" d="M136 190h192c22 0 40 18 40 40v60c0 22-18 40-40 40h-92l-54 48 12-48h-58c-22 0-40-18-40-40v-60c0-22 18-40 40-40Z"/>
  <path fill="#F7F3EA" d="M144 232h142a10 10 0 0 1 0 20H144a10 10 0 0 1 0-20Zm0 42h108a10 10 0 0 1 0 20H144a10 10 0 0 1 0-20Z"/>
  <path fill="#F06A4D" d="M250 382h86a12 12 0 0 1 0 24h-86a12 12 0 0 1 0-24Z"/>
</svg>
